<svg width="48" height="48" viewBox="0 0 48 48" xmlns="http://www.w3.org/2000/svg">
  <circle cx="24" cy="24" r="22" fill="#24292f"/>
  
  <!-- GitHub Octocat -->
  <path d="M 24 8 C 14.6 8 7 15.6 7 25 C 7 32.4 11.6 38.6 18.2 40.8 C 19.1 41 19.5 40.4 19.5 39.9 C 19.5 39.4 19.5 38.1 19.5 36.5 C 15 37.6 14 34.5 14 34.5 C 13.2 32.6 12 32 12 32 C 10.3 30.9 12.1 30.9 12.1 30.9 C 14 31 14.9 32.8 14.9 32.8 C 16.5 35.6 19.2 34.8 19.6 34.4 C 19.7 33.2 20.2 32.4 20.7 31.9 C 17.4 31.4 13.9 30 13.9 24.4 C 13.9 22.6 14.5 21.1 15 19.9 C 14.8 19.4 14.2 17.7 15.2 15.4 C 15.2 15.4 16.7 14.9 19.5 16.8 C 20.9 16.4 22.5 16.2 24 16.2 C 25.5 16.2 27.1 16.4 28.5 16.8 C 31.3 14.9 32.8 15.4 32.8 15.4 C 33.8 17.7 33.2 19.4 33 19.9 C 33.5 21.1 34.1 22.6 34.1 24.4 C 34.1 30 30.6 31.4 27.3 31.9 C 27.9 32.5 28.5 33.5 28.5 35.1 C 28.5 37.4 28.5 39.2 28.5 39.9 C 28.5 40.4 28.9 41 29.8 40.8 C 36.4 38.6 41 32.4 41 25 C 41 15.6 33.4 8 24 8 Z" fill="#ffffff"/>
</svg>