<svg width="100" height="120" viewBox="0 0 100 120" xmlns="http://www.w3.org/2000/svg">
  <!-- Shadow -->
  <ellipse cx="50" cy="115" rx="30" ry="5" fill="#94a3b8" opacity="0.3"/>
  
  <!-- Robot Body -->
  <rect x="25" y="20" width="50" height="45" fill="#ef4444" rx="5"/>
  <rect x="27" y="22" width="46" height="41" fill="#f87171" rx="4"/>
  
  <!-- Antenna - drooping -->
  <path d="M 50 20 Q 55 12 58 8" stroke="#64748b" stroke-width="3" fill="none" stroke-linecap="round"/>
  <circle cx="58" cy="8" r="5" fill="#64748b"/>
  <circle cx="58" cy="8" r="3" fill="#94a3b8"/>
  
  <!-- Sad/Error Eyes -->
  <line x1="31" y1="38" x2="43" y2="38" stroke="#1e293b" stroke-width="3" stroke-linecap="round"/>
  <line x1="57" y1="38" x2="69" y2="38" stroke="#1e293b" stroke-width="3" stroke-linecap="round"/>
  <circle cx="37" cy="41" r="2" fill="#1e293b"/>
  <circle cx="63" cy="41" r="2" fill="#1e293b"/>
  
  <!-- Error Display -->
  <rect x="32" y="48" width="36" height="10" fill="#1e293b" rx="2"/>
  <text x="50" y="56" font-family="monospace" font-size="7" fill="#ef4444" text-anchor="middle">ERROR!</text>
  
  <!-- Body/Torso -->
  <rect x="20" y="68" width="60" height="40" fill="#ef4444" rx="5"/>
  <rect x="22" y="70" width="56" height="36" fill="#f87171" rx="4"/>
  
  <!-- Control Panel - red warning -->
  <circle cx="35" cy="85" r="4" fill="#ef4444"/>
  <circle cx="50" cy="85" r="4" fill="#ef4444"/>
  <circle cx="65" cy="85" r="4" fill="#ef4444"/>
  
  <!-- X Symbol -->
  <text x="50" y="102" font-size="18" fill="#1e293b" text-anchor="middle" font-weight="bold">✗</text>
  
  <!-- Arms - down -->
  <rect x="10" y="75" width="8" height="20" fill="#ef4444" rx="4"/>
  <circle cx="14" cy="97" r="5" fill="#f87171"/>
  
  <rect x="82" y="75" width="8" height="20" fill="#ef4444" rx="4"/>
  <circle cx="86" cy="97" r="5" fill="#f87171"/>
  
  <!-- Legs -->
  <rect x="30" y="108" width="12" height="8" fill="#ef4444" rx="2"/>
  <rect x="58" y="108" width="12" height="8" fill="#ef4444" rx="2"/>
</svg>