<svg width="100" height="120" viewBox="0 0 100 120" xmlns="http://www.w3.org/2000/svg">
  <!-- Shadow -->
  <ellipse cx="50" cy="115" rx="30" ry="5" fill="#94a3b8" opacity="0.3"/>
  
  <!-- Robot Body -->
  <!-- Head -->
  <rect x="25" y="20" width="50" height="45" fill="#3b82f6" rx="5"/>
  <rect x="27" y="22" width="46" height="41" fill="#60a5fa" rx="4"/>
  
  <!-- Antenna -->
  <line x1="50" y1="20" x2="50" y2="8" stroke="#64748b" stroke-width="3" stroke-linecap="round"/>
  <circle cx="50" cy="5" r="5" fill="#fbbf24"/>
  <circle cx="50" cy="5" r="3" fill="#f59e0b"/>
  
  <!-- Eyes -->
  <circle cx="37" cy="38" r="7" fill="#1e293b"/>
  <circle cx="63" cy="38" r="7" fill="#1e293b"/>
  <circle cx="39" cy="36" r="3" fill="#ffffff"/>
  <circle cx="65" cy="36" r="3" fill="#ffffff"/>
  
  <!-- Display Screen -->
  <rect x="32" y="48" width="36" height="10" fill="#10b981" rx="2"/>
  <text x="50" y="56" font-family="monospace" font-size="7" fill="#ffffff" text-anchor="middle">READY</text>
  
  <!-- Body/Torso -->
  <rect x="20" y="68" width="60" height="40" fill="#3b82f6" rx="5"/>
  <rect x="22" y="70" width="56" height="36" fill="#60a5fa" rx="4"/>
  
  <!-- Control Panel -->
  <circle cx="35" cy="85" r="4" fill="#10b981"/>
  <circle cx="50" cy="85" r="4" fill="#fbbf24"/>
  <circle cx="65" cy="85" r="4" fill="#ef4444"/>
  
  <!-- Code Display -->
  <rect x="28" y="93" width="44" height="10" fill="#1e293b" rx="2"/>
  <text x="50" y="100" font-family="monospace" font-size="6" fill="#10b981" text-anchor="middle">&lt;code/&gt;</text>
  
  <!-- Arms -->
  <rect x="10" y="75" width="8" height="20" fill="#3b82f6" rx="4"/>
  <circle cx="14" cy="97" r="5" fill="#60a5fa"/>
  
  <rect x="82" y="75" width="8" height="20" fill="#3b82f6" rx="4"/>
  <circle cx="86" cy="97" r="5" fill="#60a5fa"/>
  
  <!-- Legs -->
  <rect x="30" y="108" width="12" height="8" fill="#3b82f6" rx="2"/>
  <rect x="58" y="108" width="12" height="8" fill="#3b82f6" rx="2"/>
</svg>