<svg width="160" height="32" viewBox="0 0 160 32" xmlns="http://www.w3.org/2000/svg">
  <!-- Star 1 -->
  <path d="M 16 4 L 19 13 L 28 13 L 21 19 L 24 28 L 16 22 L 8 28 L 11 19 L 4 13 L 13 13 Z" 
        fill="#fbbf24" stroke="#f59e0b" stroke-width="0.5"/>
  
  <!-- Star 2 -->
  <path d="M 48 4 L 51 13 L 60 13 L 53 19 L 56 28 L 48 22 L 40 28 L 43 19 L 36 13 L 45 13 Z" 
        fill="#fbbf24" stroke="#f59e0b" stroke-width="0.5"/>
  
  <!-- Star 3 -->
  <path d="M 80 4 L 83 13 L 92 13 L 85 19 L 88 28 L 80 22 L 72 28 L 75 19 L 68 13 L 77 13 Z" 
        fill="#fbbf24" stroke="#f59e0b" stroke-width="0.5"/>
  
  <!-- Star 4 -->
  <path d="M 112 4 L 115 13 L 124 13 L 117 19 L 120 28 L 112 22 L 104 28 L 107 19 L 100 13 L 109 13 Z" 
        fill="#fbbf24" stroke="#f59e0b" stroke-width="0.5"/>
  
  <!-- Star 5 -->
  <path d="M 144 4 L 147 13 L 156 13 L 149 19 L 152 28 L 144 22 L 136 28 L 139 19 L 132 13 L 141 13 Z" 
        fill="#fbbf24" stroke="#f59e0b" stroke-width="0.5"/>
</svg>